<?xml version="1.0" standalone="no"?>
<!DOCTYPE svg PUBLIC "-//W3C//DTD SVG 20010904//EN"
 "http://www.w3.org/TR/2001/REC-SVG-20010904/DTD/svg10.dtd">
<svg version="1.0" xmlns="http://www.w3.org/2000/svg"
 width="400.000000pt" height="400.000000pt" viewBox="0 0 400.000000 400.000000"
 preserveAspectRatio="xMidYMid meet">

<g transform="translate(0.000000,400.000000) scale(0.100000,-0.100000)"
fill="#000000" stroke="none">
<path d="M0 2000 l0 -2000 2000 0 2000 0 0 2000 0 2000 -2000 0 -2000 0 0
-2000z m714 659 c-1 -42 71 -185 104 -207 21 -14 23 -13 38 24 11 26 15 60 12
108 l-3 71 30 0 c29 0 30 -2 36 -50 5 -49 41 -148 61 -172 19 -23 37 -13 49
27 10 32 9 48 -1 79 -7 21 -9 44 -6 50 8 12 55 15 57 4 1 -5 2 -56 3 -115 2
-69 7 -112 15 -122 8 -10 11 -26 7 -42 -5 -18 -2 -32 10 -45 18 -20 13 -49
-10 -49 -9 0 -13 6 -10 14 9 23 -29 36 -103 36 -204 0 -541 -109 -551 -178 -2
-12 1 -22 7 -22 6 0 11 -4 11 -10 0 -5 -9 -10 -19 -10 -22 0 -35 30 -26 60 4
14 -2 27 -20 44 -19 18 -25 31 -20 46 4 13 -3 37 -20 68 -48 83 -90 142 -102
142 -6 0 -18 9 -26 21 -30 42 12 92 59 70 23 -10 28 -25 25 -62 -3 -27 107
-139 135 -139 23 0 24 2 24 78 0 89 -13 145 -41 173 -39 39 -12 92 36 71 19
-9 25 -19 25 -43 0 -19 11 -46 26 -66 36 -47 106 -113 120 -113 37 0 44 178
10 245 -21 40 -6 66 31 56 24 -7 28 -13 27 -42z m1193 -494 c27 -8 68 -28 91
-45 l42 -30 0 24 c0 43 33 56 142 56 85 0 101 -3 118 -20 11 -11 20 -28 20
-37 0 -13 9 -8 36 20 l35 37 214 0 213 0 25 -30 c14 -16 28 -35 31 -42 5 -11
7 -11 12 0 3 7 17 26 31 42 25 30 25 30 134 30 96 0 111 -2 129 -20 11 -11 20
-31 20 -44 0 -14 -40 -87 -90 -165 l-90 -141 0 -94 c0 -90 -1 -96 -26 -115
-23 -18 -41 -21 -119 -21 -128 0 -134 6 -136 128 l-1 93 -53 83 c-89 143 -76
134 -123 78 l-40 -48 74 -119 c79 -127 88 -161 54 -195 -17 -17 -33 -20 -126
-20 -58 0 -114 4 -124 10 -10 5 -31 31 -46 57 -26 44 -29 46 -32 23 -9 -80
-26 -90 -152 -90 -77 0 -93 3 -110 20 -11 11 -20 29 -20 39 0 18 -5 16 -50
-14 -136 -91 -356 -59 -443 65 l-16 24 -40 -46 c-24 -26 -60 -54 -88 -66 -95
-40 -227 -37 -316 7 l-38 19 -24 -24 c-24 -24 -25 -24 -240 -24 -216 0 -216 0
-240 25 l-25 24 0 251 0 251 25 24 c22 23 31 25 124 25 96 0 100 -1 120 -26
19 -24 21 -40 21 -170 l0 -144 69 0 70 0 3 149 c4 194 2 191 145 191 146 0
143 5 143 -201 0 -124 3 -160 13 -157 9 4 13 47 15 164 3 199 -1 194 143 194
86 0 102 -3 119 -20 11 -11 20 -31 20 -45 l0 -25 45 34 c82 63 204 83 312 51z"/>
<path d="M672 2671 c2 -7 7 -12 11 -12 12 1 9 15 -3 20 -7 2 -11 -2 -8 -8z"/>
<path d="M890 2626 c0 -9 5 -16 10 -16 6 0 10 4 10 9 0 6 -4 13 -10 16 -5 3
-10 -1 -10 -9z"/>
<path d="M450 2586 c0 -9 7 -16 16 -16 9 0 14 5 12 12 -6 18 -28 21 -28 4z"/>
<path d="M707 2525 c5 -88 -16 -138 -60 -143 -24 -3 -40 7 -94 61 -35 36 -61
58 -58 49 4 -10 9 -52 12 -94 9 -125 -30 -159 -108 -97 l-39 30 31 -61 c16
-33 27 -65 24 -71 -4 -5 3 -20 16 -33 l22 -23 56 34 c93 56 297 108 473 119
104 7 115 14 98 60 -6 14 -10 40 -10 57 l-1 32 -15 -27 c-30 -56 -69 -31 -115
71 l-33 73 -13 -52 c-7 -28 -18 -60 -23 -71 -12 -21 -47 -25 -70 -6 -19 15
-75 103 -88 137 -7 18 -8 5 -5 -45z"/>
<path d="M1060 2566 c0 -9 5 -16 10 -16 6 0 10 4 10 9 0 6 -4 13 -10 16 -5 3
-10 -1 -10 -9z"/>
<path d="M252 2463 c2 -10 14 -19 26 -21 19 -3 23 1 20 15 -2 10 -14 19 -26
21 -19 3 -23 -1 -20 -15z"/>
<path d="M1772 2097 c-8 -9 -1 -12 29 -12 21 0 40 5 43 10 5 15 -60 17 -72 2z"/>
<path d="M603 2094 c-10 -4 -12 -56 -11 -217 l3 -212 2 205 c3 147 7 206 16
212 6 5 36 7 64 6 29 -1 55 1 58 4 7 7 -116 8 -132 2z"/>
<path d="M1036 2092 c-2 -4 13 -6 35 -4 22 2 50 1 64 -2 24 -6 24 -8 28 -124
l3 -117 2 121 c2 103 0 123 -14 128 -23 9 -112 7 -118 -2z"/>
<path d="M1365 2095 c23 -8 85 -10 85 -3 0 4 -21 8 -47 7 -27 0 -43 -2 -38 -4z"/>
<path d="M1705 2090 c-13 -6 -15 -9 -5 -9 8 0 22 4 30 9 18 12 2 12 -25 0z"/>
<path d="M1870 2090 c8 -5 20 -10 25 -10 6 0 3 5 -5 10 -8 5 -19 10 -25 10 -5
0 -3 -5 5 -10z"/>
<path d="M2117 2093 c-3 -5 23 -7 58 -5 l64 4 4 -53 4 -54 -1 55 -1 55 -62 3
c-34 2 -64 -1 -66 -5z"/>
<path d="M2420 2089 c0 -5 5 -7 10 -4 6 3 10 8 10 11 0 2 -4 4 -10 4 -5 0 -10
-5 -10 -11z"/>
<path d="M2450 2091 c0 -5 21 -6 48 -4 70 7 74 11 10 12 -32 1 -58 -3 -58 -8z"/>
<path d="M2536 2054 c-53 -60 -42 -62 13 -2 24 26 40 48 35 47 -5 0 -27 -21
-48 -45z"/>
<path d="M2653 2093 c15 -2 37 -2 50 0 12 2 0 4 -28 4 -27 0 -38 -2 -22 -4z"/>
<path d="M3036 2092 c-2 -4 11 -6 30 -4 21 3 34 0 34 -7 0 -7 5 -9 10 -6 6 3
10 10 10 16 0 11 -77 12 -84 1z"/>
<path d="M1925 2069 c-6 -8 -4 -10 5 -4 10 6 12 4 7 -7 -3 -10 0 -15 11 -14
10 0 16 -6 16 -16 -1 -9 4 -19 11 -22 20 -7 6 29 -20 54 -17 16 -25 18 -30 9z"/>
<path d="M2510 2065 c-7 -8 -9 -15 -6 -15 4 0 14 7 22 15 9 8 11 15 6 15 -5 0
-15 -7 -22 -15z"/>
<path d="M3074 2069 c-3 -6 -2 -15 3 -20 5 -5 9 -1 9 11 0 23 -2 24 -12 9z"/>
<path d="M1637 2052 c-14 -15 -15 -19 -2 -19 8 0 11 5 8 10 -4 6 0 8 10 4 11
-4 14 -2 10 9 -7 18 -7 18 -26 -4z"/>
<path d="M2366 2029 c-14 -17 -26 -36 -25 -42 0 -7 5 -2 11 11 12 24 34 31 24
7 -8 -22 2 -18 15 6 8 15 8 19 0 15 -15 -10 -14 7 1 22 7 7 9 12 6 12 -3 0
-18 -14 -32 -31z"/>
<path d="M2681 2052 c-1 -7 -7 -10 -13 -7 -7 4 -5 0 5 -8 9 -8 17 -20 17 -26
0 -7 5 -9 12 -5 8 5 9 2 5 -9 -3 -9 -2 -19 3 -22 12 -7 5 46 -7 54 -6 3 -13
13 -16 21 -4 10 -6 11 -6 2z"/>
<path d="M3055 2040 c10 -11 20 -20 23 -20 3 0 -3 9 -13 20 -10 11 -20 20 -23
20 -3 0 3 -9 13 -20z"/>
<path d="M2820 2021 c0 -6 4 -13 10 -16 6 -3 7 1 4 9 -7 18 -14 21 -14 7z"/>
<path d="M2936 2018 c3 -5 10 -6 15 -3 13 9 11 12 -6 12 -8 0 -12 -4 -9 -9z"/>
<path d="M1593 2005 c-3 -9 -3 -19 1 -22 3 -4 6 1 6 11 0 10 5 14 12 10 7 -4
8 -3 4 4 -10 16 -15 15 -23 -3z"/>
<path d="M1775 2010 c-15 -7 -10 -9 23 -9 26 -1 41 3 37 9 -7 12 -32 12 -60 0z"/>
<path d="M1915 2000 c-15 -17 -16 -23 -5 -33 10 -9 11 -9 5 1 -4 8 0 21 11 33
9 10 15 19 12 19 -3 0 -13 -9 -23 -20z"/>
<path d="M2917 2004 c-3 -3 -3 -13 0 -22 4 -10 2 -13 -5 -8 -8 5 -10 1 -5 -10
4 -12 3 -15 -5 -10 -8 5 -10 2 -6 -9 10 -26 -25 -6 -41 24 -8 14 -14 20 -15
13 0 -7 10 -23 23 -36 27 -27 88 -31 94 -6 4 13 3 13 -6 0 -8 -12 -11 -12 -11
-1 0 11 -3 11 -17 0 -15 -12 -16 -12 -9 6 8 20 16 65 12 65 -2 0 -5 -3 -9 -6z"/>
<path d="M1700 1990 c-9 -6 -10 -10 -3 -10 6 0 15 5 18 10 8 12 4 12 -15 0z"/>
<path d="M1712 1969 c-13 -16 -20 -29 -15 -29 9 1 47 50 41 54 -1 2 -13 -10
-26 -25z"/>
<path d="M2477 1989 c7 -7 15 -10 18 -7 3 3 -2 9 -12 12 -14 6 -15 5 -6 -5z"/>
<path d="M2811 1984 c0 -11 3 -14 6 -6 3 7 2 16 -1 19 -3 4 -6 -2 -5 -13z"/>
<path d="M3010 1985 c-7 -9 -8 -15 -2 -15 5 0 12 7 16 15 3 8 4 15 2 15 -2 0
-9 -7 -16 -15z"/>
<path d="M1873 1972 c10 -10 14 -22 10 -27 -5 -4 -2 -5 5 -1 11 6 10 12 -4 27
-9 10 -19 19 -22 19 -3 0 2 -8 11 -18z"/>
<path d="M2000 1980 c0 -8 5 -22 10 -30 9 -13 10 -13 10 0 0 8 -5 22 -10 30
-9 13 -10 13 -10 0z"/>
<path d="M2317 1974 c-3 -5 1 -15 9 -22 16 -14 18 -5 5 17 -5 7 -11 9 -14 5z"/>
<path d="M3017 1953 c-11 -13 -17 -27 -14 -30 3 -2 13 7 23 21 22 34 15 42 -9
9z"/>
<path d="M1576 1953 c-6 -14 -5 -15 5 -6 7 7 10 15 7 18 -3 3 -9 -2 -12 -12z"/>
<path d="M2441 1948 c-14 -23 -14 -23 8 -4 22 20 25 26 13 26 -4 0 -13 -10
-21 -22z"/>
<path d="M2730 1950 c0 -5 5 -10 11 -10 5 0 7 5 4 10 -3 6 -8 10 -11 10 -2 0
-4 -4 -4 -10z"/>
<path d="M2974 1927 c0 -13 6 -24 13 -24 9 0 9 6 1 21 -15 30 -16 30 -14 3z"/>
<path d="M2271 1909 c-12 -19 -21 -38 -21 -44 1 -5 8 4 17 20 9 17 21 33 27
37 6 4 7 10 4 14 -4 3 -16 -9 -27 -27z"/>
<path d="M1787 1924 c-9 -9 -9 -77 -1 -98 10 -26 31 -18 37 13 10 49 -14 106
-36 85z"/>
<path d="M2415 1910 c4 -8 15 -23 23 -32 7 -9 11 -21 8 -26 -3 -5 1 -9 9 -9
12 0 11 6 -3 29 -18 31 -54 67 -37 38z"/>
<path d="M2750 1911 c0 -6 4 -13 10 -16 6 -3 7 1 4 9 -7 18 -14 21 -14 7z"/>
<path d="M2960 1881 c0 -6 4 -13 10 -16 6 -3 7 1 4 9 -7 18 -14 21 -14 7z"/>
<path d="M1571 1864 c0 -11 3 -14 6 -6 3 7 2 16 -1 19 -3 4 -6 -2 -5 -13z"/>
<path d="M2776 1868 c3 -5 10 -6 15 -3 13 9 11 12 -6 12 -8 0 -12 -4 -9 -9z"/>
<path d="M2416 1857 c3 -10 9 -15 12 -12 3 3 0 11 -7 18 -10 9 -11 8 -5 -6z"/>
<path d="M723 1805 c0 -22 2 -30 4 -17 2 12 2 30 0 40 -3 9 -5 -1 -4 -23z"/>
<path d="M1150 1831 c0 -5 5 -13 10 -16 6 -3 10 -2 10 4 0 5 -4 13 -10 16 -5
3 -10 2 -10 -4z"/>
<path d="M1471 1823 c0 -12 -4 -30 -7 -40 -5 -17 -5 -17 6 0 6 10 9 28 7 40
-4 22 -4 22 -6 0z"/>
<path d="M2267 1834 c-3 -3 -3 -12 0 -20 3 -8 0 -14 -6 -14 -6 0 -11 5 -11 12
0 6 -3 8 -7 4 -5 -4 1 -14 11 -22 16 -12 17 -16 5 -31 -7 -10 -1 -7 14 6 30
27 33 33 13 25 -9 -4 -13 2 -11 20 3 27 2 30 -8 20z"/>
<path d="M2351 1822 c-6 -12 -6 -23 0 -33 9 -12 10 -12 6 1 -2 8 0 23 5 33 5
9 6 17 4 17 -3 0 -10 -8 -15 -18z"/>
<path d="M2297 1821 c4 -3 10 -10 14 -14 3 -4 11 -2 17 5 8 10 5 13 -15 14
-13 1 -21 -1 -16 -5z"/>
<path d="M1126 1803 c-6 -14 -5 -15 5 -6 7 7 10 15 7 18 -3 3 -9 -2 -12 -12z"/>
<path d="M1570 1806 c0 -16 18 -31 27 -22 3 3 -2 12 -11 21 -14 14 -16 14 -16
1z"/>
<path d="M1690 1814 c0 -5 5 -15 12 -22 8 -8 8 -15 -2 -29 -12 -15 -12 -16 0
-6 11 10 18 7 37 -13 13 -15 27 -23 31 -19 4 3 -1 11 -11 16 -9 6 -28 27 -42
47 -14 20 -25 32 -25 26z"/>
<path d="M2006 1807 c3 -10 9 -15 12 -12 3 3 0 11 -7 18 -10 9 -11 8 -5 -6z"/>
<path d="M1948 1803 c7 -3 16 -2 19 1 4 3 -2 6 -13 5 -11 0 -14 -3 -6 -6z"/>
<path d="M1150 1788 c0 -9 5 -20 10 -23 13 -8 13 5 0 25 -8 13 -10 13 -10 -2z"/>
<path d="M1330 1790 c0 -5 5 -10 11 -10 5 0 7 5 4 10 -3 6 -8 10 -11 10 -2 0
-4 -4 -4 -10z"/>
<path d="M2942 1780 c0 -14 2 -19 5 -12 2 6 2 18 0 25 -3 6 -5 1 -5 -13z"/>
<path d="M1877 1773 c-4 -3 -7 -11 -7 -17 0 -6 5 -5 12 2 6 6 9 14 7 17 -3 3
-9 2 -12 -2z"/>
<path d="M1312 1755 c-7 -8 -9 -15 -4 -15 5 0 15 7 22 15 16 19 -1 19 -18 0z"/>
<path d="M2510 1757 c0 -5 9 -20 20 -34 11 -14 20 -21 20 -15 0 12 -39 60 -40
49z"/>
<path d="M768 1733 c6 -2 18 -2 25 0 6 3 1 5 -13 5 -14 0 -19 -2 -12 -5z"/>
<path d="M1238 1727 c14 -6 26 -7 32 -1 5 5 -4 9 -23 10 -30 1 -30 1 -9 -9z"/>
<path d="M1437 1723 c3 -7 6 -13 8 -13 2 0 5 6 8 13 3 8 -1 14 -8 14 -7 0 -11
-6 -8 -14z"/>
<path d="M1830 1729 c-12 -8 -10 -9 8 -4 12 3 22 4 22 0 0 -3 -10 -10 -22 -15
-13 -5 -16 -9 -8 -9 23 -1 43 15 36 28 -9 14 -17 14 -36 0z"/>
<path d="M1972 1720 c-7 -11 -10 -20 -6 -20 7 0 34 27 34 34 0 13 -16 5 -28
-14z"/>
<path d="M1050 1726 c0 -2 7 -9 15 -16 13 -11 14 -10 9 4 -5 14 -24 23 -24 12z"/>
<path d="M1616 1715 c4 -8 11 -15 16 -15 6 0 5 6 -2 15 -7 8 -14 15 -16 15 -2
0 -1 -7 2 -15z"/>
<path d="M2390 1721 c0 -5 5 -13 10 -16 6 -3 10 -2 10 4 0 5 -4 13 -10 16 -5
3 -10 2 -10 -4z"/>
<path d="M1250 1710 c-35 -7 -35 -7 -5 -9 17 0 37 4 45 9 17 11 11 11 -40 0z"/>
<path d="M961 1694 c0 -11 3 -14 6 -6 3 7 2 16 -1 19 -3 4 -6 -2 -5 -13z"/>
<path d="M1096 1695 c-3 -9 -2 -14 3 -10 5 3 11 -1 14 -7 2 -7 7 -11 10 -8 3
3 0 13 -8 23 -11 16 -13 16 -19 2z"/>
<path d="M1404 1696 c-3 -8 -11 -13 -18 -10 -7 3 -13 -2 -13 -11 0 -8 3 -15 7
-15 7 0 50 39 50 45 0 12 -21 4 -26 -9z"/>
<path d="M1298 1693 c7 -3 16 -2 19 1 4 3 -2 6 -13 5 -11 0 -14 -3 -6 -6z"/>
<path d="M2421 1684 c0 -11 3 -14 6 -6 3 7 2 16 -1 19 -3 4 -6 -2 -5 -13z"/>
<path d="M2460 1691 c0 -6 4 -13 10 -16 6 -3 7 1 4 9 -7 18 -14 21 -14 7z"/>
<path d="M1641 1687 c2 -1 11 -8 21 -15 12 -10 18 -10 24 -1 4 8 3 9 -4 5 -7
-4 -12 -2 -12 3 0 6 -7 11 -17 11 -9 0 -14 -1 -12 -3z"/>
<path d="M1723 1676 c-25 -12 -30 -26 -10 -26 7 0 18 9 25 20 7 11 11 19 10
19 -2 -1 -13 -6 -25 -13z"/>
<path d="M1939 1673 c-13 -16 -12 -17 4 -4 16 13 21 21 13 21 -2 0 -10 -8 -17
-17z"/>
<path d="M2140 1665 c0 -9 -6 -12 -17 -8 -11 4 -14 3 -9 -5 12 -19 36 -14 36
8 0 11 -2 20 -5 20 -3 0 -5 -7 -5 -15z"/>
<path d="M2822 1660 c0 -14 2 -19 5 -12 2 6 2 18 0 25 -3 6 -5 1 -5 -13z"/>
<path d="M2843 1660 c-1 -11 2 -20 8 -20 5 0 9 9 9 20 0 11 -4 20 -8 20 -4 0
-8 -9 -9 -20z"/>
<path d="M2920 1659 c0 -12 5 -16 15 -13 8 4 15 12 15 18 0 7 -7 13 -15 13 -8
0 -15 -8 -15 -18z"/>
<path d="M1150 1660 c-11 -8 -7 -9 15 -4 37 8 45 14 19 14 -10 0 -26 -5 -34
-10z"/>
<path d="M1280 1662 c0 -7 -12 -13 -27 -13 -26 -2 -26 -2 -4 -6 24 -5 50 11
38 24 -4 3 -7 1 -7 -5z"/>
<path d="M1876 1654 c-11 -8 -16 -14 -10 -14 13 0 39 18 34 24 -3 2 -14 -2
-24 -10z"/>
<path d="M2544 1655 c-18 -13 -16 -14 18 -13 30 1 36 4 27 15 -14 17 -21 16
-45 -2z"/>
<path d="M595 1650 c3 -5 8 -10 11 -10 2 0 4 5 4 10 0 6 -5 10 -11 10 -5 0 -7
-4 -4 -10z"/>
<path d="M627 1648 c-7 -4 65 -8 160 -8 94 0 174 3 176 8 6 9 -321 9 -336 0z"/>
<path d="M1310 1650 c0 -5 4 -10 9 -10 6 0 13 5 16 10 3 6 -1 10 -9 10 -9 0
-16 -4 -16 -10z"/>
<path d="M2160 1650 c0 -5 18 -10 39 -10 22 0 43 5 46 10 4 6 -12 10 -39 10
-25 0 -46 -4 -46 -10z"/>
<path d="M2460 1649 c0 -5 9 -9 20 -9 11 0 20 2 20 4 0 2 -9 6 -20 9 -11 3
-20 1 -20 -4z"/>
<path d="M2890 1650 c0 -5 5 -10 10 -10 6 0 10 5 10 10 0 6 -4 10 -10 10 -5 0
-10 -4 -10 -10z"/>
<path d="M1798 1643 c7 -3 16 -2 19 1 4 3 -2 6 -13 5 -11 0 -14 -3 -6 -6z"/>
</g>
</svg>
